<?xml version="1.0" standalone="no"?>
<!DOCTYPE svg PUBLIC "-//W3C//DTD SVG 20010904//EN"
 "http://www.w3.org/TR/2001/REC-SVG-20010904/DTD/svg10.dtd">
<svg version="1.0" xmlns="http://www.w3.org/2000/svg"
 width="728.000000pt" height="460.000000pt" viewBox="0 0 728.000000 460.000000"
 preserveAspectRatio="xMidYMid meet">
<metadata>
Created by potrace 1.16, written by Peter Selinger 2001-2019
</metadata>
<g transform="translate(0.000000,460.000000) scale(0.100000,-0.100000)"
fill="#000000" stroke="none">
<path d="M2349 4573 c-6 -73 26 -322 87 -683 25 -146 50 -292 55 -325 5 -33
23 -130 39 -215 16 -85 50 -265 75 -400 25 -135 47 -255 50 -266 4 -18 -7 -27
-78 -59 -205 -92 -422 -231 -572 -367 -78 -71 -88 -77 -166 -97 -436 -115
-768 -271 -1034 -486 -137 -111 -243 -241 -320 -390 -25 -49 -45 -95 -45 -102
0 -8 -4 -12 -9 -9 -27 17 -232 422 -265 524 -10 28 -21 52 -26 52 -4 0 -14
-23 -20 -51 l-13 -51 -45 86 c-25 47 -49 86 -54 86 -11 0 -10 -69 2 -170 41
-326 158 -649 346 -955 23 -38 48 -92 55 -120 30 -126 128 -292 235 -399 110
-110 216 -171 278 -159 77 15 246 229 581 738 98 149 198 302 224 340 70 106
144 174 249 228 132 68 302 132 513 193 10 3 32 -17 63 -57 l48 -61 -17 -42
c-31 -75 -34 -84 -55 -193 -12 -59 -24 -155 -27 -213 -5 -88 -10 -111 -30
-140 -12 -19 -23 -45 -23 -57 0 -20 5 -23 35 -23 l35 0 0 -83 c0 -46 3 -86 6
-90 12 -12 35 7 60 49 14 24 28 44 30 44 2 0 13 -18 24 -41 30 -58 51 -50 72
31 9 36 17 89 17 117 1 48 5 57 47 102 69 74 123 149 157 219 18 34 36 60 42
58 196 -88 414 -136 623 -136 45 0 82 -2 82 -5 0 -3 -18 -38 -41 -78 -82 -144
-132 -289 -145 -422 -5 -44 -14 -80 -27 -96 -28 -38 -19 -64 21 -63 l32 2 0
-68 c0 -75 6 -100 24 -100 14 0 59 47 109 113 l35 48 13 -38 c14 -43 38 -83
49 -83 12 0 39 75 55 152 12 57 21 74 47 95 60 48 149 147 195 216 47 71 146
260 176 339 17 43 22 47 66 57 101 21 301 94 417 151 l120 59 215 -33 c117
-19 239 -36 269 -37 l55 -4 3 36 c2 20 -8 65 -22 104 -14 38 -24 71 -22 72 1
2 27 -4 57 -11 106 -28 324 -66 376 -66 51 0 53 1 53 28 0 35 -45 129 -104
216 -25 38 -45 70 -43 72 1 2 75 21 162 44 178 45 391 111 445 138 19 9 36 24
38 33 6 34 -129 90 -341 143 l-128 31 62 45 c66 48 159 144 159 164 0 25 -57
38 -210 48 l-155 11 81 81 c81 80 120 138 109 156 -19 31 -336 -29 -593 -112
l-62 -20 -20 24 c-11 12 -19 26 -20 31 0 4 80 59 178 123 97 63 326 212 507
330 470 307 483 314 541 314 69 0 230 18 287 31 80 19 73 47 -23 91 -53 25
-63 20 140 68 171 40 312 85 341 109 l23 18 -22 12 c-12 6 -63 15 -113 19
l-91 7 78 56 c133 95 234 191 234 222 0 13 -49 8 -158 -18 -213 -49 -686 -193
-927 -281 -95 -36 -341 -129 -445 -169 -114 -45 -478 -200 -626 -268 -111 -51
-126 -55 -221 -61 -57 -4 -103 -4 -103 0 0 4 20 49 44 98 25 50 48 109 52 130
l7 39 -39 -6 c-41 -7 -169 -65 -265 -122 -34 -20 -63 -34 -65 -32 -2 1 12 43
30 92 45 122 50 144 32 151 -19 7 -61 -15 -143 -78 -79 -60 -335 -272 -409
-339 l-51 -46 -129 -1 c-109 0 -136 3 -174 20 -46 20 -38 11 -520 603 -205
253 -285 354 -285 362 0 5 27 31 60 57 64 51 95 83 95 97 0 12 -66 29 -148 37
l-73 7 78 57 c85 61 233 194 233 209 0 24 -245 -4 -394 -45 l-90 -25 -98 104
c-123 129 -186 172 -189 128z m233 -233 l36 -44 119 28 c154 37 284 65 303 65
11 0 10 -2 -4 -10 -10 -6 -32 -25 -48 -43 -21 -22 -26 -25 -19 -9 6 12 16 24
23 26 9 4 9 6 1 6 -6 1 -20 -10 -31 -24 -11 -14 -24 -25 -29 -25 -16 0 -44
-36 -36 -45 5 -4 3 -5 -4 -2 -18 11 -95 -57 -126 -110 l-17 -31 52 -7 c29 -3
77 -11 107 -17 l53 -12 -33 -28 c-19 -15 -38 -28 -42 -28 -4 0 -23 -16 -43
-35 -38 -38 -38 -39 13 -102 19 -24 31 -48 27 -54 -4 -7 -3 -9 3 -6 10 6 53
-40 108 -114 19 -25 170 -214 201 -252 8 -10 12 -23 8 -29 -4 -6 -3 -8 3 -5 6
4 93 -96 197 -227 103 -128 197 -238 209 -244 21 -10 21 -11 -8 -11 -115 -3
-516 -109 -739 -195 -65 -26 -120 -46 -121 -46 -2 0 -3 8 -3 18 0 9 -9 60 -21
112 -12 52 -31 133 -41 180 -11 47 -20 95 -20 108 0 12 -4 30 -9 40 -5 9 -19
64 -30 122 -26 133 -48 242 -71 350 -10 47 -21 102 -24 123 -4 21 -11 35 -16
32 -4 -3 -6 3 -3 14 2 10 -5 63 -16 117 -12 54 -21 110 -21 124 0 20 -2 22
-11 10 -8 -11 -9 -5 -4 25 4 31 3 37 -6 25 -9 -13 -10 -12 -5 4 5 16 -1 51
-30 171 -8 34 -44 249 -44 264 0 16 152 -133 212 -209z m4608 -509 c-8 -5 -65
-23 -127 -42 -61 -18 -110 -36 -107 -41 3 -4 -2 -5 -10 -2 -8 3 -39 -6 -70
-20 -31 -14 -61 -26 -67 -26 -6 0 -25 -7 -42 -15 -18 -7 -75 -30 -127 -50
-269 -101 -368 -139 -400 -150 -19 -8 -57 -23 -83 -34 -27 -12 -58 -21 -68
-21 -11 0 -17 -4 -14 -10 3 -5 -1 -10 -10 -10 -9 0 -61 -18 -115 -41 -55 -22
-105 -37 -111 -33 -7 4 -10 3 -6 -2 3 -5 -16 -18 -41 -28 -26 -11 -69 -29 -97
-41 -27 -12 -79 -34 -115 -49 -36 -15 -74 -31 -85 -36 -11 -5 -60 -27 -110
-49 -49 -21 -119 -52 -155 -69 -36 -16 -87 -40 -115 -52 -97 -43 -542 -269
-669 -339 -70 -39 -130 -71 -133 -71 -2 0 -29 -16 -59 -35 -30 -19 -57 -35
-60 -35 -2 0 -62 -34 -132 -76 -70 -42 -134 -80 -142 -85 -115 -68 -201 -123
-216 -140 -18 -20 -18 -21 1 -36 42 -31 472 -2 855 58 232 36 280 45 288 53 2
3 13 1 23 -4 25 -14 53 -1 171 76 l101 66 33 -39 c18 -21 45 -61 60 -90 26
-48 27 -53 14 -80 -8 -15 -17 -30 -20 -33 -3 -3 -17 -21 -30 -40 -29 -43 -181
-196 -235 -235 -22 -17 -42 -32 -45 -35 -3 -3 -12 -9 -21 -15 -9 -5 -54 -35
-100 -66 -46 -31 -100 -64 -119 -75 -19 -10 -37 -22 -40 -25 -6 -7 -92 -52
-100 -52 -3 0 -11 -7 -18 -16 -11 -14 -11 -14 -5 3 6 18 2 19 -55 13 -34 -4
-90 -9 -125 -12 l-62 -6 56 24 c54 23 161 84 223 126 51 35 136 123 136 142 0
12 -10 21 -27 25 -35 9 -342 -10 -683 -42 -151 -14 -320 -29 -375 -34 -160
-14 -1228 -34 -1370 -25 l-130 7 40 35 c74 64 232 166 246 158 7 -5 10 -4 6 2
-4 6 14 24 41 41 187 117 378 215 707 362 76 34 200 82 320 125 145 52 161 71
53 62 -41 -4 -84 -10 -94 -13 -19 -7 -19 -7 0 14 11 12 16 25 13 28 -3 4 -284
-86 -624 -200 -534 -178 -799 -265 -811 -266 -14 -1 26 34 111 96 56 41 107
72 114 69 8 -2 12 -1 9 4 -7 11 76 62 244 149 357 186 814 337 1160 383 52 7
172 13 265 13 181 -1 335 -21 505 -67 l84 -23 -110 -58 c-182 -98 -403 -228
-649 -385 -192 -121 -215 -139 -215 -163 0 -25 13 -21 99 36 409 268 885 531
1341 740 446 205 842 369 1255 519 328 119 693 240 880 291 97 26 119 30 95
17z m-3838 -1223 c3 -9 18 -9 63 0 67 14 86 9 28 -7 -112 -30 -554 -219 -723
-309 -318 -169 -621 -355 -685 -422 -52 -55 -49 -55 418 -53 614 2 1077 19
1442 53 457 43 744 64 752 57 22 -23 -175 -162 -345 -243 -70 -34 -110 -59
-106 -66 7 -11 187 -4 244 9 21 5 16 -3 -30 -51 -76 -79 -175 -151 -243 -176
-54 -20 -59 -21 -83 -6 -20 14 -22 20 -14 36 18 33 11 59 -26 100 -72 79 -250
144 -440 159 -135 10 -218 -1 -294 -39 -86 -43 -140 -100 -140 -146 0 -77 82
-150 208 -186 89 -25 268 -34 381 -19 72 10 93 10 110 -1 12 -7 21 -16 21 -19
0 -15 -157 -34 -285 -33 -112 0 -157 5 -225 23 -214 56 -368 129 -518 244 -52
39 -53 41 -31 52 61 33 -56 30 -259 -6 -280 -50 -609 -177 -728 -282 -75 -66
-184 -211 -373 -495 -96 -144 -177 -260 -178 -258 -2 2 7 80 21 172 27 182 85
656 114 924 l18 165 13 -75 c15 -91 24 -123 37 -127 5 -1 25 26 43 62 37 69
53 82 46 38 -2 -16 -7 -71 -10 -123 -12 -195 -63 -461 -130 -673 -27 -85 -29
-97 -16 -97 22 0 107 245 139 405 39 186 56 562 27 567 -5 1 -29 -29 -52 -66
-22 -37 -43 -64 -46 -59 -2 4 -8 26 -11 48 -16 91 -38 175 -46 175 -4 0 -11
-21 -14 -47 -4 -27 -24 -187 -46 -357 -22 -170 -40 -316 -41 -325 0 -11 -5 -9
-17 9 -36 53 -118 132 -171 165 -99 60 -201 88 -321 89 -94 1 -111 -2 -160
-25 -30 -14 -77 -46 -104 -69 l-48 -44 25 50 c108 213 348 421 674 587 223
113 359 162 744 266 102 28 259 77 350 109 90 33 274 97 409 143 135 46 326
111 425 145 196 68 201 70 207 52z m2448 -123 c-12 -13 -26 -22 -31 -20 -4 3
-65 -11 -136 -31 -70 -20 -138 -38 -151 -41 -12 -3 -25 -9 -28 -14 -3 -5 -14
-9 -25 -9 -11 0 -44 -9 -74 -19 l-55 -19 -15 21 c-12 16 -12 23 -2 28 27 15
529 139 536 133 3 -2 -6 -15 -19 -29z m-5690 -889 c5 -4 14 13 22 39 l13 47
39 -98 c44 -111 140 -310 193 -397 l35 -58 -17 -104 c-11 -66 -16 -141 -13
-205 1 -55 1 -100 -2 -100 -14 0 -152 278 -205 414 -72 183 -145 476 -145 579
0 26 5 21 36 -39 20 -38 40 -73 44 -78z m3517 49 c128 -12 318 -86 386 -150
54 -51 28 -65 -59 -30 -36 15 -68 24 -72 21 -7 -7 -11 -5 78 -49 71 -36 128
-74 119 -80 -32 -24 -109 -67 -118 -67 -15 0 -107 46 -144 72 -30 22 -47 18
-28 -6 19 -23 -37 -29 -212 -24 -122 4 -164 9 -215 27 -101 35 -153 76 -167
133 -19 76 182 175 330 162 22 -2 68 -6 102 -9z m621 -327 c-5 -59 -14 -91
-37 -128 -6 -8 -29 -53 -52 -100 -23 -47 -45 -87 -48 -90 -4 -3 -13 -21 -21
-40 -8 -19 -17 -37 -21 -40 -4 -3 -23 -30 -41 -60 -42 -69 -111 -173 -119
-180 -3 -3 -19 -23 -35 -45 -50 -68 -75 -97 -166 -187 -52 -51 -83 -88 -75
-91 6 -3 3 -6 -9 -6 -11 -1 -25 -6 -31 -12 -20 -20 -52 0 -63 41 -29 107 69
392 205 598 110 167 395 402 488 402 l29 0 -4 -62z m-3273 15 c128 -32 286
-139 331 -225 21 -39 21 -47 -16 -303 -55 -383 -48 -353 -97 -425 -96 -139
-199 -269 -210 -265 -7 2 -10 -2 -7 -10 6 -15 -49 -55 -75 -55 -27 0 -101 42
-94 52 3 6 1 8 -4 5 -14 -9 -105 63 -99 78 2 7 -1 12 -8 11 -27 -2 -149 165
-201 277 -58 122 -69 182 -70 362 0 146 3 167 26 236 15 42 31 83 37 90 144
182 269 226 487 172z m1738 -41 c41 -32 91 -69 111 -82 24 -14 34 -25 26 -30
-6 -4 -11 -11 -10 -16 2 -21 -25 -92 -34 -87 -5 3 -6 1 -2 -5 9 -15 -61 -143
-112 -206 -13 -16 -21 -35 -18 -42 3 -8 0 -11 -9 -7 -8 3 -12 10 -8 16 3 6 1
7 -6 3 -6 -4 -9 -11 -6 -16 3 -5 -7 -23 -22 -40 -39 -45 -74 -39 -87 15 -12
51 7 250 34 360 20 80 59 195 66 195 3 0 37 -26 77 -58z"/>
<path d="M692 1089 c-106 -22 -182 -151 -182 -309 0 -140 50 -282 131 -374 52
-59 91 -80 135 -71 106 19 227 373 185 540 -7 26 -28 73 -48 104 -21 31 -36
61 -34 66 1 6 -1 7 -5 3 -4 -4 -23 2 -42 14 -42 26 -96 36 -140 27z m83 -38
c49 -23 95 -71 127 -131 50 -97 29 -271 -54 -452 -38 -83 -67 -113 -103 -104
-61 15 -148 148 -181 277 -25 96 -16 248 18 314 29 55 60 89 98 104 36 14 50
13 95 -8z"/>
<path d="M1152 771 c-74 -93 -129 -282 -120 -411 6 -75 12 -92 33 -84 22 9
111 148 135 210 37 99 40 334 5 334 -8 0 -32 -22 -53 -49z"/>
</g>
</svg>
