<?xml version="1.0" standalone="no"?>
<!DOCTYPE svg PUBLIC "-//W3C//DTD SVG 20010904//EN"
 "http://www.w3.org/TR/2001/REC-SVG-20010904/DTD/svg10.dtd">
<svg version="1.0" xmlns="http://www.w3.org/2000/svg"
 width="1200.000000pt" height="1200.000000pt" viewBox="0 0 1200.000000 1200.000000"
 preserveAspectRatio="xMidYMid meet">
<metadata>
Created by potrace 1.11, written by Peter Selinger 2001-2013
</metadata>
<g transform="translate(0.000000,1200.000000) scale(0.100000,-0.100000)"
fill="#000000" stroke="none">
<path d="M4560 9985 c-10 -13 -14 -34 -26 -140 -3 -27 -9 -65 -14 -82 -5 -21
-5 -33 1 -33 6 0 8 -4 4 -9 -7 -12 -17 -110 -19 -183 0 -32 -3 -58 -6 -58 -3
0 -6 -15 -6 -33 -1 -17 -4 -96 -6 -173 -3 -78 -8 -146 -11 -151 -3 -5 -2 -15
3 -22 4 -8 4 -27 0 -43 -5 -15 -9 -31 -9 -33 -1 -3 -1 -6 -2 -7 0 -2 -2 -64
-4 -138 -12 -444 -20 -614 -29 -628 -3 -6 -2 -13 4 -17 6 -4 8 -10 5 -15 -8
-13 -16 -206 -18 -442 -1 -108 -5 -199 -9 -203 -4 -4 -3 -17 1 -29 7 -20 7
-58 -4 -221 -3 -44 -7 -106 -9 -138 -2 -32 -6 -60 -9 -63 -3 -3 -2 -17 3 -30
5 -13 6 -24 2 -24 -4 0 -7 -24 -7 -53 0 -28 -2 -56 -4 -61 -6 -13 -8 -33 -15
-131 -11 -144 -22 -250 -31 -295 -7 -32 -17 -107 -20 -140 -2 -23 -12 -79 -22
-125 -3 -11 -6 -31 -7 -45 -1 -14 -5 -30 -9 -36 -3 -6 -8 -23 -11 -39 -11 -58
-40 -140 -58 -159 -40 -44 -62 -65 -67 -64 -3 1 -13 -1 -21 -5 -8 -3 -37 -13
-65 -22 -57 -20 -70 -25 -218 -94 -59 -28 -114 -51 -121 -51 -8 0 -19 -7 -26
-15 -7 -9 -15 -13 -18 -11 -3 3 -17 -3 -31 -13 -14 -10 -66 -40 -116 -66 -49
-27 -91 -52 -93 -57 -2 -4 -10 -8 -19 -8 -8 0 -45 -20 -82 -44 -38 -24 -78
-47 -90 -51 -11 -3 -21 -10 -21 -15 0 -4 -12 -13 -27 -19 -16 -6 -44 -21 -65
-34 -114 -69 -134 -82 -145 -92 -6 -5 -23 -19 -37 -30 -15 -11 -40 -33 -58
-50 -17 -16 -36 -30 -42 -32 -6 -1 -22 -5 -36 -8 -14 -3 -38 -8 -55 -10 -72
-11 -98 -16 -105 -20 -17 -11 -16 22 2 75 11 30 22 78 24 105 3 28 8 57 11 65
12 30 10 70 -5 70 -16 0 -18 -2 -102 -101 -99 -116 -104 -122 -149 -187 -37
-54 -76 -90 -91 -83 -3 1 -23 0 -45 -3 -22 -4 -58 -9 -80 -12 -22 -3 -53 -7
-70 -10 -41 -6 -264 -17 -567 -27 -63 -2 -117 1 -131 7 l-25 11 66 135 c36 74
70 137 74 138 4 2 8 11 8 21 0 9 7 27 16 39 8 12 13 22 9 22 -3 0 9 28 26 62
47 92 80 186 69 193 -5 3 -48 -17 -95 -46 -47 -29 -88 -49 -92 -46 -7 7 15 86
29 102 4 5 8 16 8 25 0 8 7 28 15 44 9 16 17 37 19 45 2 9 6 23 9 31 27 71 56
175 50 181 -12 12 -92 -47 -138 -102 -22 -26 -46 -48 -52 -48 -7 -1 -13 -5
-13 -10 0 -5 -48 -57 -106 -117 -159 -164 -199 -209 -273 -309 -25 -33 -50
-64 -56 -70 -7 -5 -43 -53 -80 -105 -38 -52 -73 -99 -77 -105 -44 -56 -61 -81
-106 -148 -29 -43 -52 -82 -52 -86 0 -3 -10 -22 -23 -41 -13 -19 -32 -55 -42
-80 -11 -25 -31 -57 -45 -71 -14 -14 -39 -41 -56 -60 -17 -19 -55 -56 -83 -83
-29 -27 -64 -67 -79 -90 -14 -23 -38 -57 -53 -76 -14 -19 -30 -46 -34 -59 -4
-14 -16 -33 -26 -44 -10 -11 -16 -24 -13 -29 3 -4 0 -8 -5 -8 -6 0 -11 -4 -11
-9 0 -5 -20 -52 -45 -105 -25 -53 -46 -99 -46 -103 0 -5 -5 -13 -9 -18 -5 -6
-12 -24 -15 -40 -8 -39 -13 -59 -15 -62 -2 -2 -4 -7 -5 -13 -1 -5 -3 -11 -5
-12 -2 -4 -6 -22 -15 -67 -3 -19 -8 -38 -11 -43 -7 -11 -14 -44 -20 -98 -3
-25 -8 -52 -11 -60 -13 -32 -10 -183 4 -233 8 -29 15 -57 15 -64 1 -7 15 -15
32 -19 44 -11 169 -12 183 -1 6 4 14 3 18 -3 3 -5 21 -10 39 -10 18 0 36 -3
40 -7 14 -14 112 -18 516 -17 380 0 505 4 527 17 7 4 38 9 163 24 55 6 85 11
85 13 0 2 20 6 65 14 32 5 101 18 159 30 13 3 49 13 80 22 31 9 61 17 66 19
10 2 17 4 90 32 22 8 74 26 115 39 41 13 83 29 92 34 10 6 24 10 32 10 8 0 27
5 43 12 15 6 30 12 33 12 3 1 11 5 18 9 7 5 24 10 37 13 14 2 50 15 80 29 30
13 55 22 55 20 0 -2 17 3 38 12 20 8 48 20 62 26 14 6 28 11 33 12 4 2 8 3 10
5 1 1 11 3 22 5 18 4 53 17 133 51 18 8 40 14 48 14 15 0 15 -2 0 -25 -15 -23
-15 -25 4 -35 21 -11 50 -8 107 11 31 10 38 9 56 -9 l20 -21 -22 -58 c-75
-195 -84 -238 -51 -238 8 -1 17 2 20 5 3 3 14 13 26 21 12 8 61 50 109 94 48
44 93 78 99 76 6 -2 21 -3 33 -3 18 0 22 -8 28 -49 13 -91 35 -82 133 57 12
17 36 39 54 49 18 9 56 30 83 46 28 16 57 32 65 36 18 8 87 72 138 127 21 22
45 48 55 58 9 10 14 18 10 18 -5 0 -1 5 7 10 35 22 79 60 157 137 80 79 101
91 183 108 8 2 16 4 18 5 3 3 10 5 57 15 56 13 55 12 58 14 1 2 12 4 24 7 16
3 28 -4 40 -24 10 -15 31 -38 48 -52 16 -14 40 -35 53 -47 13 -13 25 -23 28
-23 3 0 33 -22 67 -50 34 -27 67 -50 74 -50 7 0 13 -4 13 -10 0 -5 3 -9 8 -8
9 4 80 -39 110 -66 13 -12 27 -20 30 -20 4 1 25 -11 47 -26 22 -15 59 -35 83
-45 23 -11 42 -22 42 -26 0 -3 15 -12 33 -20 17 -7 48 -22 67 -34 19 -12 62
-32 95 -45 33 -13 63 -29 67 -34 4 -6 8 -7 8 -3 0 4 9 3 21 -3 11 -6 30 -13
42 -16 12 -2 23 -8 25 -14 2 -5 11 -10 20 -10 10 0 41 -9 71 -20 29 -10 65
-21 80 -24 67 -12 88 -17 121 -28 19 -6 53 -12 75 -14 22 -1 40 -3 40 -4 0 -1
14 -4 30 -6 17 -2 50 -7 75 -11 106 -15 398 -22 420 -8 8 5 27 10 43 12 28 3
25 -2 -49 -78 -109 -113 -114 -118 -114 -123 0 -4 -22 -32 -79 -97 -18 -21
-30 -39 -27 -39 4 0 -2 -9 -12 -20 -10 -11 -25 -33 -33 -48 -8 -15 -18 -31
-22 -37 -27 -34 -138 -260 -140 -286 -1 -10 -4 -19 -7 -19 -3 0 -7 -12 -8 -27
-1 -15 -7 -32 -12 -37 -6 -6 -10 -19 -10 -29 0 -11 -21 -38 -47 -61 -81 -72
-176 -166 -168 -166 4 0 2 -7 -5 -15 -7 -9 -10 -19 -6 -22 11 -11 39 -13 51
-3 5 4 15 9 20 9 6 0 33 6 62 12 41 10 56 9 68 -1 22 -18 24 -13 -40 -155 -7
-16 -16 -48 -20 -70 -4 -22 -9 -51 -12 -65 -10 -54 -10 -116 -1 -128 16 -19
31 -15 72 23 21 19 40 35 42 35 1 0 27 26 56 57 105 112 163 163 186 163 16 0
22 -6 23 -22 2 -58 42 -163 66 -172 24 -10 81 107 112 230 10 37 17 44 98 89
49 27 93 53 100 59 6 6 30 27 54 46 125 104 342 342 386 427 14 26 29 50 32
53 3 3 22 36 41 73 19 38 40 76 45 85 44 70 112 217 121 262 8 35 10 43 17 60
3 8 11 44 19 80 14 70 42 110 78 110 11 0 20 5 20 12 0 6 3 8 7 5 3 -4 16 -1
27 6 17 11 76 35 106 42 27 7 61 24 145 72 22 12 47 25 55 29 8 3 35 14 59 24
24 10 60 16 80 15 37 -4 84 -12 89 -15 1 -2 10 -3 20 -5 9 -1 24 -4 32 -8 8
-3 35 -8 59 -12 24 -3 49 -9 55 -12 6 -4 17 -8 26 -9 25 -4 152 -41 199 -58
24 -9 60 -18 80 -21 20 -3 46 -7 58 -9 13 -3 24 1 27 10 3 8 0 14 -6 14 -7 0
-7 4 0 13 7 8 7 18 2 27 -5 8 -6 18 -3 23 3 5 7 30 10 55 3 26 9 50 15 53 9 6
18 6 108 -5 25 -3 81 -8 125 -12 44 -3 94 -8 110 -10 17 -2 59 -6 94 -9 36 -3
68 -8 72 -11 4 -2 38 -7 77 -10 99 -9 100 -4 22 181 -23 55 -47 110 -53 123
-13 27 1 41 43 43 14 0 34 3 45 5 45 12 144 27 147 23 2 -1 13 3 25 9 15 8 24
9 28 2 4 -7 11 -8 18 -1 7 5 38 11 70 14 31 2 60 7 64 10 3 4 21 7 39 7 18 0
35 4 38 8 2 4 17 9 33 10 33 3 52 7 73 15 15 5 125 27 165 32 27 4 104 15 135
20 14 2 54 9 89 14 74 12 86 20 77 53 -4 16 -24 31 -68 51 -35 15 -67 27 -72
27 -5 0 -17 6 -25 13 -9 7 -34 19 -56 26 -22 8 -60 23 -85 34 -25 11 -48 20
-52 19 -5 -1 -8 2 -8 6 0 4 -17 14 -37 22 -35 12 -228 100 -262 119 -8 4 -16
12 -18 18 -4 11 77 71 100 76 7 1 16 7 22 13 5 7 32 24 58 38 57 31 98 57 113
71 6 6 30 19 53 29 22 11 41 23 41 28 0 4 7 8 15 8 8 0 25 12 38 26 12 15 28
33 36 41 8 8 10 18 5 23 -7 6 -146 38 -279 64 -11 2 -36 7 -55 11 -19 4 -44 9
-55 10 -11 2 -20 4 -20 5 0 2 -9 4 -20 5 -11 2 -31 5 -45 8 -14 3 -61 13 -105
22 -107 23 -114 30 -67 81 55 61 70 80 154 189 41 55 85 111 97 124 24 27 24
30 12 50 -7 10 -19 12 -47 7 -22 -4 -46 -9 -54 -10 -9 -1 -20 -5 -25 -8 -6 -3
-26 -9 -45 -13 -19 -4 -40 -11 -46 -17 -11 -8 -22 -11 -82 -24 -12 -2 -102
-29 -200 -60 -97 -30 -186 -57 -197 -59 -11 -3 -31 -9 -45 -15 -14 -5 -34 -11
-45 -13 -11 -1 -26 -6 -32 -10 -18 -11 -51 -19 -103 -24 -36 -4 -49 0 -65 16
-36 38 -40 42 -58 54 -23 16 -14 40 21 54 33 14 125 66 132 74 5 7 141 82 292
162 91 49 110 60 224 126 39 22 76 41 83 41 6 0 11 5 11 11 0 5 4 8 8 5 5 -3
23 4 41 15 18 11 70 35 115 54 45 18 131 57 191 85 61 29 137 63 170 77 62 26
104 45 215 95 60 28 108 49 120 53 3 1 19 7 35 14 17 7 46 19 65 26 19 7 58
23 85 36 28 12 52 23 55 24 3 1 18 7 33 13 16 7 31 12 35 12 4 0 24 9 45 20
20 11 37 18 37 15 0 -3 11 2 25 11 14 9 25 13 25 9 0 -4 6 -2 14 4 9 7 58 13
125 14 61 1 111 4 111 7 0 3 12 5 28 6 15 0 56 4 92 8 36 4 80 9 98 11 43 5
72 14 72 23 -1 11 -32 45 -63 69 l-28 22 28 15 c25 12 121 41 176 51 9 2 45
11 80 20 34 9 78 18 97 21 19 3 49 8 65 11 17 4 32 7 35 8 58 10 138 30 148
38 8 6 12 6 12 -1 0 -6 8 -9 18 -7 9 2 17 4 17 5 0 1 7 3 16 5 9 1 32 10 50
18 19 9 45 19 59 23 27 7 40 21 40 42 0 9 -12 12 -40 9 -22 -2 -43 0 -46 4 -2
5 -15 4 -28 -1 -13 -5 -26 -6 -29 -3 -3 2 -34 7 -69 9 -86 5 -128 10 -134 17
-5 5 101 68 139 82 9 4 17 14 17 22 0 8 5 11 10 8 6 -3 13 1 16 9 3 9 12 16
19 16 7 0 18 7 25 15 7 8 16 12 21 9 5 -3 9 0 9 7 0 7 3 10 6 6 5 -5 112 57
124 73 3 3 21 16 41 28 34 21 56 57 41 66 -4 2 -32 0 -62 -5 -30 -5 -71 -11
-90 -13 -19 -3 -46 -7 -60 -10 -54 -12 -130 -27 -135 -28 -2 0 -37 -9 -77 -20
-40 -11 -98 -26 -128 -34 -30 -8 -59 -16 -65 -18 -5 -1 -30 -8 -55 -15 -25 -8
-52 -15 -60 -16 -8 -2 -16 -4 -17 -5 -2 -2 -7 -4 -13 -5 -5 -1 -11 -3 -12 -5
-4 -2 -46 -10 -70 -12 -10 -1 -18 -6 -18 -10 0 -4 -3 -7 -7 -6 -5 1 -21 -4
-36 -10 -16 -7 -33 -12 -38 -12 -5 0 -9 -5 -9 -11 0 -5 -4 -8 -9 -5 -4 3 -59
-12 -121 -34 -62 -21 -131 -41 -154 -44 -48 -7 -146 -34 -231 -65 -33 -12 -67
-24 -76 -26 -8 -2 -32 -10 -52 -19 -20 -8 -37 -13 -37 -10 0 3 -13 -4 -30 -16
-16 -12 -30 -17 -30 -12 0 6 -31 -1 -69 -14 -37 -13 -79 -26 -92 -28 -13 -3
-25 -5 -26 -7 -2 -1 -6 -2 -10 -3 -5 -1 -13 -4 -18 -8 -13 -8 -154 -58 -179
-63 -10 -3 -43 -11 -72 -20 -30 -9 -56 -15 -59 -15 -3 0 -22 -6 -42 -14 -119
-44 -325 -115 -332 -114 -3 0 -9 -1 -13 -2 -5 -1 -12 -4 -18 -5 -5 -1 -11 -3
-12 -5 -2 -1 -10 -3 -18 -5 -8 -2 -31 -9 -50 -16 -49 -17 -64 -22 -72 -24 -5
-2 -11 -4 -15 -5 -5 -2 -12 -4 -18 -5 -5 -1 -19 -5 -30 -9 -11 -4 -36 -13 -55
-21 -19 -7 -60 -22 -90 -35 -30 -12 -64 -24 -75 -25 -11 -2 -20 -4 -20 -5 0
-2 -37 -11 -52 -12 -7 -1 -13 -5 -13 -8 0 -6 -49 -26 -105 -44 -24 -7 -108
-39 -173 -65 -29 -12 -83 -31 -120 -43 -37 -11 -69 -23 -72 -27 -3 -3 -12 -7
-20 -9 -8 -1 12 21 44 50 33 29 78 71 100 93 23 22 58 54 77 71 20 17 44 45
55 62 10 18 21 32 25 32 11 0 29 50 19 51 -6 1 -16 2 -22 3 -7 1 -21 -1 -30
-6 -10 -5 -19 -4 -23 2 -5 8 -11 8 -19 1 -7 -6 -38 -12 -69 -13 -31 -2 -57 -5
-57 -8 0 -4 -10 -6 -22 -6 -25 -1 -120 -12 -178 -21 -19 -3 -48 -7 -65 -8 -16
-2 -45 -6 -62 -9 -63 -11 -93 -14 -93 -10 0 3 20 35 44 72 24 37 60 99 80 137
20 39 39 75 44 81 37 52 36 86 -1 77 -12 -2 -31 -6 -42 -8 -11 -3 -58 -16
-105 -30 -47 -14 -94 -27 -105 -29 -11 -2 -51 -15 -90 -29 -86 -31 -253 -86
-279 -92 -15 -3 -17 0 -12 18 4 12 9 33 12 46 3 13 9 32 15 43 5 10 7 18 5 18
-3 0 2 19 10 43 9 23 17 49 19 57 2 8 10 40 18 70 23 88 7 92 -88 20 -36 -27
-68 -50 -71 -50 -3 0 -58 -42 -122 -93 -64 -51 -151 -118 -192 -150 -41 -31
-91 -70 -110 -87 -19 -17 -54 -45 -78 -61 -24 -17 -56 -44 -73 -60 -32 -31
-32 -31 -94 -30 -398 5 -530 10 -533 20 -2 6 -7 9 -12 6 -4 -3 -13 2 -20 10
-7 8 -18 15 -24 15 -7 0 -27 16 -46 35 -19 19 -39 35 -44 35 -13 0 -76 72 -76
87 0 7 -4 13 -10 13 -5 0 -10 4 -10 9 0 5 -10 31 -22 58 -12 26 -22 50 -22 53
-1 3 -16 33 -33 66 -18 34 -29 64 -26 68 4 3 1 6 -5 6 -7 0 -12 5 -12 10 0 6
-23 59 -51 118 -72 151 -99 210 -99 217 0 3 -7 21 -15 41 -8 19 -15 38 -16 42
0 4 -6 16 -12 27 -6 11 -10 23 -9 28 1 4 -2 7 -8 7 -5 0 -10 7 -10 16 0 8 -11
32 -25 52 -14 20 -25 47 -25 59 0 13 -5 23 -11 23 -5 0 -7 5 -4 10 3 6 1 10
-4 10 -6 0 -10 3 -9 8 1 4 -4 18 -12 32 -8 14 -15 32 -16 40 -2 8 -7 23 -13
35 -21 43 -83 188 -81 193 0 1 -7 17 -17 35 -9 17 -18 35 -19 40 -1 4 -3 9 -4
12 -1 3 -3 8 -4 13 -1 4 -17 41 -37 82 -20 41 -51 111 -69 155 -18 44 -41 98
-50 120 -17 38 -24 57 -30 80 -2 6 -15 37 -30 70 -15 33 -27 62 -27 65 0 3
-10 26 -22 52 -25 56 -27 95 -5 119 8 9 17 23 18 31 5 27 49 118 57 118 5 0 9
5 9 11 0 5 9 29 19 53 11 23 21 48 23 56 2 8 7 18 12 21 5 4 -1 12 -12 18 -21
11 -60 -5 -121 -51 -38 -29 -61 -19 -40 17 4 6 17 42 29 80 12 39 28 79 33 90
6 11 12 22 12 25 1 3 5 22 9 43 5 20 12 37 17 37 5 0 8 3 7 8 -2 11 21 94 32
114 6 10 10 22 10 27 0 5 5 22 12 38 6 15 12 31 13 36 2 4 3 8 5 10 2 2 5 16
13 53 3 11 12 45 21 74 21 69 20 80 -4 80 -12 0 -65 -45 -135 -115 -63 -63
-115 -117 -115 -119 0 -3 -21 -27 -47 -54 -27 -27 -66 -71 -88 -96 -35 -41
-41 -44 -52 -30 -7 10 -10 21 -7 25 3 5 1 9 -4 9 -7 0 -33 42 -37 60 -1 8 -65
161 -83 200 -9 19 -33 65 -53 102 -20 37 -34 69 -31 72 3 3 -1 6 -8 6 -7 0
-11 3 -7 6 3 3 -4 22 -15 42 -12 21 -26 46 -33 57 -55 97 -74 115 -95 90z"/>
</g>
</svg>
